<?xml version="1.0"?>
<svg xmlns="http://www.w3.org/2000/svg" xmlns:xlink="http://www.w3.org/1999/xlink" xmlns:svgjs="http://svgjs.com/svgjs" version="1.1" width="512" height="512" x="0" y="0" viewBox="0 0 512 512" style="enable-background:new 0 0 512 512" xml:space="preserve" class=""><g><g xmlns="http://www.w3.org/2000/svg"><path d="m399 196v-53c0-78.851-64.149-143-143-143s-143 64.149-143 143v53h-47v126c0 104.766 85.233 190 190 190s190-85.234 190-190v-126zm-256-53c0-62.309 50.691-113 113-113s113 50.691 113 113v53h-226zm273 179c0 88.224-71.775 160-160 160s-160-71.776-160-160v-96h320z" fill="#9a9aab" data-original="#000000" style="" class=""/><path d="m241 373.921v46.745h30v-46.745c23.06-6.545 40-27.792 40-52.921 0-30.327-24.673-55-55-55s-55 24.673-55 55c0 25.129 16.94 46.376 40 52.921zm15-77.921c13.785 0 25 11.215 25 25s-11.215 25-25 25-25-11.215-25-25 11.215-25 25-25z" fill="#9a9aab" data-original="#000000" style="" class=""/></g></g></svg>
