<svg id="bold" enable-background="new 0 0 24 24" height="512" viewBox="0 0 24 24" width="512" xmlns="http://www.w3.org/2000/svg"><path d="m6.75 5.5c-.552 0-1-.448-1-1v-3.5c0-.552.448-1 1-1s1 .448 1 1v3.5c0 .552-.448 1-1 1z"/><path d="m11.5 5.5c-.552 0-1-.448-1-1v-3.5c0-.552.448-1 1-1s1 .448 1 1v3.5c0 .552-.448 1-1 1z"/><path d="m16.25 5.5c-.552 0-1-.448-1-1v-3.5c0-.552.448-1 1-1s1 .448 1 1v3.5c0 .552-.448 1-1 1z"/><path d="m18.25 2.25h-13.5c-1.517 0-2.75 1.233-2.75 2.75v16.25c0 1.517 1.233 2.75 2.75 2.75h13.5c1.517 0 2.75-1.233 2.75-2.75v-16.25c0-1.517-1.233-2.75-2.75-2.75zm-11.25 5.75h5c.552 0 1 .448 1 1s-.448 1-1 1h-5c-.552 0-1-.448-1-1s.448-1 1-1zm10 10h-10c-.552 0-1-.448-1-1s.448-1 1-1h10c.552 0 1 .448 1 1s-.448 1-1 1zm0-4h-10c-.552 0-1-.448-1-1s.448-1 1-1h10c.552 0 1 .448 1 1s-.448 1-1 1z"/></svg>